<?xml version="1.0" encoding="utf-8"?>
<!-- Generator: Adobe Illustrator 23.0.1, SVG Export Plug-In . SVG Version: 6.00 Build 0)  -->
<svg version="1.1" id="Layer_1" xmlns="http://www.w3.org/2000/svg" xmlns:xlink="http://www.w3.org/1999/xlink" x="0px" y="0px"
	 viewBox="0 0 595.3 841.9" style="enable-background:new 0 0 595.3 841.9;" xml:space="preserve">
<style type="text/css">
	.st0{fill:#EF4960;}
	.st1{fill:none;}
	.st2{fill:url(#Rectangle_3_1_);}
	.st3{clip-path:url(#SVGID_2_);}
	.st4{fill:url(#Path_9_1_);}
	.st5{fill:url(#Path_10_1_);}
	.st6{fill:url(#Path_11_1_);}
	.st7{fill:url(#Path_12_1_);}
	.st8{clip-path:url(#SVGID_4_);}
	.st9{fill:url(#Path_14_1_);}
	.st10{fill:url(#Path_15_1_);}
	.st11{fill:url(#Path_16_1_);}
	.st12{fill:url(#Path_17_1_);}
	.st13{clip-path:url(#SVGID_6_);}
	.st14{fill:url(#Path_19_1_);}
	.st15{fill:url(#Path_20_1_);}
	.st16{fill:url(#Path_21_1_);}
	.st17{fill:url(#Path_22_1_);}
	.st18{fill:#170C42;}
</style>
<symbol  id="left" viewBox="-108 -75.9 216 151.8">
	<use xlink:href="#top"  width="216" height="151.8" x="-108" y="-75.9" style="overflow:visible;"/>
</symbol>
<symbol  id="top" viewBox="-108 -75.9 216 151.8">
	<path class="st0" d="M95.7,51.2H-95.7c-6.8,0-12.3,5.5-12.3,12.3v0c0,6.8,5.5,12.3,12.3,12.3H95.7c6.8,0,12.3-5.5,12.3-12.3v0
		C108,56.8,102.5,51.2,95.7,51.2z"/>
	<path class="st0" d="M95.7,10.2H-95.7c-6.8,0-12.3,5.5-12.3,12.3v0c0,6.8,5.5,12.3,12.3,12.3H95.7c6.8,0,12.3-5.5,12.3-12.3v0
		C108,15.7,102.5,10.2,95.7,10.2z"/>
	<path class="st0" d="M95.7-32.8H-95.7c-6.8,0-12.3,5.5-12.3,12.3v0c0,6.8,5.5,12.3,12.3,12.3H95.7c6.8,0,12.3-5.5,12.3-12.3v0
		C108-27.3,102.5-32.8,95.7-32.8z"/>
	<path class="st0" d="M95.7-75.9H-95.7c-6.8,0-12.3,5.5-12.3,12.3v0c0,6.8,5.5,12.3,12.3,12.3H95.7c6.8,0,12.3-5.5,12.3-12.3v0
		C108-70.4,102.5-75.9,95.7-75.9z"/>
</symbol>
<pattern  width="419" height="158" patternUnits="userSpaceOnUse" id="pattern" viewBox="0 -158 419 158" style="overflow:visible;">
	<g>
		<rect x="0" y="-158" class="st1" width="419" height="158"/>
		
			<image style="overflow:visible;enable-background:new    ;" width="419" height="158" xlink:href="36B095CC.png"  transform="matrix(1 0 0 -1 9.094947e-13 0)">
		</image>
	</g>
</pattern>
<g>
</g>
<g id="Group_30" transform="translate(-53.278 -342)">
	<g id="Group_4" transform="translate(89.053 342)">
		<pattern  id="Rectangle_3_1_" xlink:href="#pattern" patternTransform="matrix(0.3929 0 0 -0.3913 -4755.7686 -9037.4346)">
		</pattern>
		<rect id="Rectangle_3" x="162.9" y="202" class="st2" width="164.6" height="61.8"/>
	</g>
	<g id="Group_28" transform="translate(53.278 351.371)">
		<g id="Group_27">
			<g id="Group_26">
				<g id="Group_11" transform="translate(0 8.778)">
					<g id="Group_10">
						<g>
							<defs>
								<polygon id="SVGID_1_" points="179.5,235.7 162.9,224.1 165.6,202 182.3,213.6 								"/>
							</defs>
							<clipPath id="SVGID_2_">
								<use xlink:href="#SVGID_1_"  style="overflow:visible;"/>
							</clipPath>
							<g id="Group_9" class="st3">
								<g id="Group_8" transform="translate(2.258 2.902)">
									<g id="Group_7">
										<g id="Group_6">
											<g id="Group_5">
												
													<linearGradient id="Path_9_1_" gradientUnits="userSpaceOnUse" x1="10.2483" y1="804.459" x2="10.2483" y2="803.459" gradientTransform="matrix(14.7063 0 0 -12.2403 21.3808 10048.793)">
													<stop  offset="0" style="stop-color:#42B4E7"/>
													<stop  offset="1" style="stop-color:#4852A4"/>
												</linearGradient>
												<path id="Path_9" class="st4" d="M178.8,211.1l-13-9c-0.5-0.3-0.9,0.1-1,0.9c-0.1,0.8,0.1,1.5,0.7,2.1l13,9
													c0.5,0.3,0.9-0.1,1-0.9C179.5,212.4,179.3,211.6,178.8,211.1"/>
												
													<linearGradient id="Path_10_1_" gradientUnits="userSpaceOnUse" x1="10.2484" y1="804.459" x2="10.2484" y2="803.459" gradientTransform="matrix(14.7063 0 0 -12.2403 20.77 10053.7881)">
													<stop  offset="0" style="stop-color:#42B4E7"/>
													<stop  offset="1" style="stop-color:#4852A4"/>
												</linearGradient>
												<path id="Path_10" class="st5" d="M178.2,216.1l-13-9c-0.5-0.3-0.9,0.1-1,0.9c-0.1,0.8,0.1,1.5,0.7,2.1l13,9
													c0.5,0.3,0.9-0.1,1-0.9C178.9,217.4,178.7,216.6,178.2,216.1"/>
												
													<linearGradient id="Path_11_1_" gradientUnits="userSpaceOnUse" x1="10.2486" y1="804.459" x2="10.2486" y2="803.459" gradientTransform="matrix(14.7059 0 0 -12.2403 20.1287 10059.0264)">
													<stop  offset="0" style="stop-color:#42B4E7"/>
													<stop  offset="1" style="stop-color:#4852A4"/>
												</linearGradient>
												<path id="Path_11" class="st6" d="M177.5,221.3l-13-9c-0.5-0.3-0.9,0.1-1,0.9c-0.1,0.8,0.1,1.5,0.7,2.1l13,9
													c0.5,0.3,0.9-0.1,1-0.9C178.3,222.6,178,221.9,177.5,221.3"/>
												
													<linearGradient id="Path_12_1_" gradientUnits="userSpaceOnUse" x1="10.2483" y1="804.459" x2="10.2483" y2="803.459" gradientTransform="matrix(14.7063 0 0 -12.2403 19.487 10064.2656)">
													<stop  offset="0" style="stop-color:#42B4E7"/>
													<stop  offset="1" style="stop-color:#4852A4"/>
												</linearGradient>
												<path id="Path_12" class="st7" d="M176.9,226.6l-13-9c-0.5-0.3-0.9,0.1-1,0.9c-0.1,0.8,0.1,1.5,0.7,2.1l13,9
													c0.5,0.3,0.9-0.1,1-0.9C177.6,227.9,177.4,227.1,176.9,226.6"/>
											</g>
										</g>
									</g>
								</g>
							</g>
						</g>
					</g>
				</g>
				<g id="Group_18" transform="translate(2.733)">
					<g id="Group_17">
						<g>
							<defs>
								<polygon id="SVGID_3_" points="179.5,222.4 162.9,210.7 182.6,201.9 199.3,213.6 								"/>
							</defs>
							<clipPath id="SVGID_4_">
								<use xlink:href="#SVGID_3_"  style="overflow:visible;"/>
							</clipPath>
							<g id="Group_16" class="st8">
								<g id="Group_15" transform="translate(3.34 2)">
									<g id="Group_14">
										<g id="Group_13">
											<g id="Group_12">
												
													<linearGradient id="Path_14_1_" gradientUnits="userSpaceOnUse" x1="4.0299" y1="807.7333" x2="4.0299" y2="806.7334" gradientTransform="matrix(18.8149 0 0 -8.8158 96.4488 7322.7759)">
													<stop  offset="0" style="stop-color:#42B4E7"/>
													<stop  offset="1" style="stop-color:#4852A4"/>
												</linearGradient>
												<path id="Path_14" class="st9" d="M179.1,202.1l-15.8,7c-0.6,0.3-0.5,0.8,0.1,1.2c0.6,0.4,1.4,0.6,2.1,0.3l15.8-7
													c0.6-0.3,0.5-0.8-0.1-1.2C180.6,202,179.8,201.8,179.1,202.1"/>
												
													<linearGradient id="Path_15_1_" gradientUnits="userSpaceOnUse" x1="4.0294" y1="807.7325" x2="4.0294" y2="806.7325" gradientTransform="matrix(18.8159 0 0 -8.8155 100.1578 7325.0884)">
													<stop  offset="0" style="stop-color:#42B4E7"/>
													<stop  offset="1" style="stop-color:#4852A4"/>
												</linearGradient>
												<path id="Path_15" class="st10" d="M182.8,204.7l-15.8,7c-0.6,0.3-0.5,0.8,0.1,1.2c0.6,0.4,1.4,0.6,2.1,0.3l15.8-7
													c0.6-0.3,0.5-0.8-0.1-1.2C184.3,204.6,183.5,204.4,182.8,204.7"/>
												
													<linearGradient id="Path_16_1_" gradientUnits="userSpaceOnUse" x1="4.0295" y1="807.7346" x2="4.0295" y2="806.7346" gradientTransform="matrix(18.8157 0 0 -8.8163 104.0404 7328.4604)">
													<stop  offset="0" style="stop-color:#42B4E7"/>
													<stop  offset="1" style="stop-color:#4852A4"/>
												</linearGradient>
												<path id="Path_16" class="st11" d="M186.6,207.4l-15.8,7c-0.6,0.3-0.5,0.8,0.1,1.2c0.6,0.4,1.4,0.6,2.1,0.3l15.8-7
													c0.6-0.3,0.5-0.8-0.1-1.2C188.2,207.3,187.4,207.2,186.6,207.4"/>
												
													<linearGradient id="Path_17_1_" gradientUnits="userSpaceOnUse" x1="4.0294" y1="807.7319" x2="4.0294" y2="806.7319" gradientTransform="matrix(18.8159 0 0 -8.8152 107.9258 7330.3418)">
													<stop  offset="0" style="stop-color:#42B4E7"/>
													<stop  offset="1" style="stop-color:#4852A4"/>
												</linearGradient>
												<path id="Path_17" class="st12" d="M190.5,210.1l-15.8,7c-0.6,0.3-0.5,0.8,0.1,1.2c0.6,0.4,1.4,0.6,2.1,0.3l15.8-7
													c0.6-0.3,0.5-0.8-0.1-1.2C192,210,191.3,209.9,190.5,210.1"/>
											</g>
										</g>
									</g>
								</g>
							</g>
						</g>
					</g>
				</g>
				<g id="Group_25" transform="translate(16.682 11.663)">
					<g id="Group_24">
						<g>
							<defs>
								<polygon id="SVGID_5_" points="185.3,202 182.6,224.1 162.9,232.9 165.6,210.7 								"/>
							</defs>
							<clipPath id="SVGID_6_">
								<use xlink:href="#SVGID_5_"  style="overflow:visible;"/>
							</clipPath>
							<g id="Group_23" class="st13">
								<g id="Group_22" transform="translate(1.816 2.413)">
									<g id="Group_21">
										<g id="Group_20">
											<g id="Group_19">
												
													<linearGradient id="Path_19_1_" gradientUnits="userSpaceOnUse" x1="-7.4496" y1="798.136" x2="-7.4496" y2="797.136" gradientTransform="matrix(16.9518 0 0 -9.886 299.5969 8092.3638)">
													<stop  offset="0" style="stop-color:#42B4E7"/>
													<stop  offset="1" style="stop-color:#4852A4"/>
												</linearGradient>
												<path id="Path_19" class="st14" d="M181,202l-15,6.7c-0.7,0.5-1.1,1.2-1.2,2c-0.1,0.9,0.2,1.4,0.8,1.1l15-6.7
													c0.7-0.5,1.1-1.2,1.2-2C181.9,202.3,181.5,201.8,181,202"/>
												
													<linearGradient id="Path_20_1_" gradientUnits="userSpaceOnUse" x1="-7.4496" y1="798.136" x2="-7.4496" y2="797.136" gradientTransform="matrix(16.9518 0 0 -9.886 298.959 8097.52)">
													<stop  offset="0" style="stop-color:#42B4E7"/>
													<stop  offset="1" style="stop-color:#4852A4"/>
												</linearGradient>
												<path id="Path_20" class="st15" d="M180.4,207.2l-15,6.7c-0.7,0.5-1.1,1.2-1.2,2c-0.1,0.9,0.2,1.4,0.8,1.1l15-6.7
													c0.7-0.5,1.1-1.2,1.2-2C181.2,207.4,180.9,206.9,180.4,207.2"/>
												
													<linearGradient id="Path_21_1_" gradientUnits="userSpaceOnUse" x1="-7.4492" y1="798.1339" x2="-7.4492" y2="797.1339" gradientTransform="matrix(16.9511 0 0 -9.885 298.2785 8102.0776)">
													<stop  offset="0" style="stop-color:#42B4E7"/>
													<stop  offset="1" style="stop-color:#4852A4"/>
												</linearGradient>
												<path id="Path_21" class="st16" d="M179.7,212.6l-15,6.7c-0.7,0.5-1.1,1.2-1.2,2c-0.1,0.9,0.2,1.4,0.8,1.1l15-6.7
													c0.7-0.5,1.1-1.2,1.2-2C180.6,212.8,180.2,212.3,179.7,212.6"/>
												
													<linearGradient id="Path_22_1_" gradientUnits="userSpaceOnUse" x1="-7.4492" y1="798.136" x2="-7.4492" y2="797.136" gradientTransform="matrix(16.9511 0 0 -9.886 297.6095 8108.333)">
													<stop  offset="0" style="stop-color:#42B4E7"/>
													<stop  offset="1" style="stop-color:#4852A4"/>
												</linearGradient>
												<path id="Path_22" class="st17" d="M179,218l-15,6.7c-0.7,0.5-1.1,1.2-1.2,2c-0.1,0.9,0.2,1.4,0.8,1.1l15-6.7
													c0.7-0.5,1.1-1.2,1.2-2C179.9,218.2,179.6,217.7,179,218"/>
											</g>
										</g>
									</g>
								</g>
							</g>
						</g>
					</g>
				</g>
			</g>
		</g>
	</g>
	<g id="Group_29" transform="translate(102.162 356.441)">
		<path id="Path_24" class="st18" d="M173.1,204c1.7,0,3.4,0.4,4.9,1.2c1.3,0.7,2.4,1.8,3.1,3c0.7,1.1,1,2.3,1,3.6
			c0,1.3-0.3,2.6-0.9,3.7c-0.6,1.2-1.5,2.1-2.6,2.8c1.5,0.7,2.8,1.8,3.8,3.1c0.9,1.3,1.4,2.9,1.4,4.5c0,1.7-0.5,3.3-1.4,4.7
			c-1,1.5-2.3,2.7-3.9,3.5c-1.7,0.9-3.5,1.3-5.4,1.3c-1.8,0-3.7-0.4-5.3-1.3c-1.4-0.7-2.7-1.8-3.6-3.1c-0.8-1-1.2-2.3-1.3-3.6
			c0-0.8,0.4-1.6,1-2c0.6-0.5,1.4-0.8,2.3-0.8c0.8,0,1.6,0.6,2.4,1.8c0.6,0.9,1.2,1.7,1.9,2.5c0.8,0.6,1.8,0.8,2.7,0.7
			c0.7,0,1.4-0.2,2-0.5c0.6-0.3,1.1-0.8,1.5-1.4c0.4-0.6,0.6-1.3,0.5-2c0.1-1-0.2-2-0.9-2.7c-0.8-0.6-1.8-0.9-2.8-1
			c-0.9-0.1-1.8-0.4-2.7-0.8c-0.6-0.3-0.8-1-0.8-2.2c-0.1-0.8,0.2-1.5,0.8-2.1c0.7-0.5,1.5-0.8,2.3-1c0.8-0.2,1.6-0.5,2.3-1
			c0.6-0.6,0.9-1.4,0.8-2.2c0-0.8-0.3-1.5-0.8-2c-0.6-0.6-1.4-0.9-2.2-0.8c-0.8,0-1.5,0.1-2.1,0.5c-0.6,0.4-1.1,1-1.5,1.6
			c-0.4,0.6-0.8,1.1-1.3,1.6c-0.4,0.3-0.9,0.5-1.5,0.5c-0.8,0-1.5-0.3-2-0.9c-0.5-0.6-0.8-1.4-0.8-2.2c0-0.9,0.3-1.7,0.8-2.5
			c0.6-0.9,1.3-1.6,2.1-2.3c0.9-0.7,1.9-1.2,3-1.6C170.8,204.2,171.9,204,173.1,204z"/>
		<path id="Path_25" class="st18" d="M189,231.7v-23.9c0-0.9,0.3-1.8,0.9-2.4c0.6-0.6,1.5-0.9,2.4-0.9h7.1c2.2,0,4.3,0.3,6.4,1.1
			c1.8,0.7,3.4,1.8,4.7,3.1c1.3,1.4,2.3,3.1,2.9,4.9c0.7,2.1,1,4.3,1,6.5c0,2.1-0.3,4.1-1,6.1c-1.3,3.6-4.1,6.4-7.6,7.7
			c-1.9,0.7-3.9,1.1-5.9,1h-7.4c-0.5,0-1.1-0.1-1.6-0.3c-0.5-0.2-1-0.6-1.3-1C189.1,233,189,232.4,189,231.7z M195.4,210.4V229h4.3
			c1.6,0.1,3.1-0.4,4.5-1.2c1.2-0.8,2.1-1.9,2.7-3.2c0.6-1.5,0.9-3.1,0.9-4.7c0-1.7-0.3-3.3-0.9-4.9c-0.6-1.4-1.5-2.6-2.8-3.3
			c-1.4-0.8-3.1-1.3-4.8-1.2L195.4,210.4z"/>
		<path id="Path_26" class="st18" d="M234.6,232.9c0,0.5-0.2,1.1-0.5,1.4c-0.8,0.7-2,0.7-2.7,0c-0.4-0.4-0.5-0.9-0.5-1.4v-26.5
			c0-0.5,0.2-1.1,0.5-1.4c0.8-0.7,2-0.7,2.7,0c0.4,0.4,0.5,0.9,0.5,1.4v10.9l13-11.7c0.3-0.3,0.7-0.6,1-0.8c0.3-0.2,0.7-0.4,1.1-0.4
			c0.4,0,0.9,0.1,1.2,0.4c0.3,0.3,0.5,0.7,0.4,1.2c0,0.4,0,0.7-0.2,1c-0.2,0.2-0.3,0.4-0.6,0.6l-12.5,11l13.6,12.9
			c0.3,0.2,0.5,0.5,0.6,0.8c0.1,0.2,0.2,0.5,0.1,0.8c0,0.4-0.2,0.9-0.5,1.2c-0.4,0.3-0.8,0.5-1.3,0.5c-0.3,0-0.6,0-0.8-0.1
			c-0.4-0.2-0.7-0.4-1-0.7l-14.2-13.7L234.6,232.9z"/>
		<path id="Path_27" class="st18" d="M256.1,219.3c0.4-1.3,1.1-2.6,1.9-3.6c0.9-1.1,1.9-1.9,3.1-2.5c2.7-1.3,5.8-1.3,8.5,0
			c1.2,0.6,2.3,1.5,3.1,2.5c0.9,1.1,1.5,2.3,1.9,3.6c0.9,2.8,0.9,5.7,0,8.5c-0.4,1.3-1.1,2.6-1.9,3.6c-0.9,1.1-1.9,1.9-3.1,2.5
			c-2.7,1.3-5.8,1.3-8.5,0c-1.2-0.6-2.3-1.5-3.1-2.5c-0.9-1.1-1.5-2.3-1.9-3.6C255.2,225,255.2,222.1,256.1,219.3z M259.5,226.4
			c0.2,0.9,0.6,1.8,1.1,2.6c0.5,0.8,1.2,1.4,1.9,1.9c1.8,1,4,1,5.8,0c0.8-0.5,1.4-1.1,1.9-1.9c0.5-0.8,0.9-1.7,1.1-2.6
			c0.4-1.9,0.4-3.8,0-5.7c-0.2-0.9-0.6-1.8-1.1-2.6c-0.5-0.8-1.1-1.4-1.9-1.9c-1.8-1-4-1-5.8,0c-0.8,0.5-1.4,1.1-1.9,1.9
			c-0.5,0.8-0.9,1.7-1.1,2.6C259.1,222.6,259.1,224.5,259.5,226.4z"/>
		<path id="Path_28" class="st18" d="M295.3,231.8L295.3,231.8c-1.2,2.1-3.2,3.1-6.1,3.1c-1.4,0-2.8-0.3-4.1-0.9
			c-1.2-0.6-2.2-1.5-3.1-2.5c-0.9-1.1-1.5-2.3-1.9-3.6c-0.9-2.8-0.9-5.7,0-8.5c0.4-1.3,1-2.5,1.9-3.6c0.8-1,1.9-1.9,3.1-2.5
			c1.3-0.6,2.7-1,4.1-0.9c0.7,0,1.4,0.1,2.1,0.3c0.6,0.2,1.2,0.4,1.7,0.7c0.5,0.3,0.9,0.6,1.3,1c0.3,0.3,0.7,0.7,0.9,1.1h0.1V204
			c0-0.5,0.2-1.1,0.5-1.5c0.4-0.4,0.9-0.6,1.4-0.5c0.5,0,1,0.2,1.4,0.5c0.4,0.4,0.5,0.9,0.5,1.5v29c0,0.5-0.2,1.1-0.5,1.5
			c-0.8,0.7-2,0.7-2.7,0c-0.4-0.4-0.5-0.9-0.5-1.5L295.3,231.8z M295.3,220.7c-0.2-0.9-0.6-1.8-1.1-2.6c-0.5-0.8-1.1-1.4-1.9-1.9
			c-1.8-1-4-1-5.8,0c-0.8,0.5-1.4,1.1-1.9,1.9c-0.5,0.8-0.9,1.7-1.1,2.6c-0.4,1.9-0.4,3.8,0,5.7c0.2,0.9,0.6,1.8,1.1,2.6
			c0.5,0.8,1.2,1.4,1.9,1.9c1.8,1,4,1,5.8,0c0.8-0.5,1.4-1.1,1.9-1.9c0.5-0.8,0.9-1.7,1.1-2.6C295.8,224.5,295.8,222.6,295.3,220.7z
			"/>
	</g>
</g>
</svg>
