<svg id="Layer_1" data-name="Layer 1" xmlns="http://www.w3.org/2000/svg" xmlns:xlink="http://www.w3.org/1999/xlink" viewBox="0 0 595.28 376.41"><defs><style>.cls-1{fill:#44b5e8;}.cls-2{opacity:0.79;isolation:isolate;fill:url(#linear-gradient);}</style><linearGradient id="linear-gradient" x1="1.37" y1="841.67" x2="0.99" y2="841.86" gradientTransform="matrix(1068.61, 0, 0, -802.82, -849.29, 675975.33)" gradientUnits="userSpaceOnUse"><stop offset="0" stop-color="#264393"/><stop offset="0.17" stop-color="#244b9b"/><stop offset="0.47" stop-color="#1f66b1"/><stop offset="0.84" stop-color="#268ecd"/><stop offset="1" stop-color="#31a0da"/></linearGradient></defs><title>aboutblob</title><path id="Path_64" data-name="Path 64" class="cls-1" d="M45.33,280.52c25,0,56.18,39.84,56.18,64.88s-31.14,32.37-56.18,32.37A45.33,45.33,0,0,1,0,332.44C0,307.41,20.3,280.52,45.33,280.52Z" transform="translate(0 -1.36)"/><path id="Path_63" data-name="Path 63" class="cls-2" d="M595.28,42.92c-9.49-11.17-24.78-25.8-46.85-34.38-65-25.29-133.6,23.39-150.7,35.53C346,80.81,359.91,70.85,300.53,113.9c-30.27,21.95-35.12,22.36-80.36,42-18.78,8.54-76.52,14.84-94.72,31.35-19.91,18.07-29.12,51.18-22.16,77.92,12.91,49.66,79.92,71.14,123,74.48,55.88,4.34,61-22.64,136.29-24.06,46.82-.88,80.08-1.51,115.25,18.33,24,13.52,42.74,33.12,78.67,37.82a121,121,0,0,0,38-1.15Z" transform="translate(0 -1.36)"/></svg>