<svg id="Layer_1" data-name="Layer 1" xmlns="http://www.w3.org/2000/svg" xmlns:xlink="http://www.w3.org/1999/xlink" viewBox="0 0 841.89 599.01"><defs><style>.cls-1{fill:url(#linear-gradient);}.cls-2{fill:url(#linear-gradient-2);}.cls-3{fill:url(#linear-gradient-3);}.cls-4{fill:url(#linear-gradient-4);}.cls-5{fill:url(#linear-gradient-5);}.cls-6{fill:url(#linear-gradient-6);}.cls-7{fill:url(#linear-gradient-7);}</style><linearGradient id="linear-gradient" x1="125.1" y1="718.7" x2="125.08" y2="718.89" gradientTransform="matrix(876.56, -2542.21, -4123.34, -1421.73, 2854575.73, 1340225.52)" gradientUnits="userSpaceOnUse"><stop offset="0" stop-color="#4d53a3"/><stop offset="0" stop-color="#3d53a4"/></linearGradient><linearGradient id="linear-gradient-2" x1="125.08" y1="718.7" x2="125.07" y2="718.9" gradientTransform="matrix(766.3, -2222.42, -4123.34, -1421.73, 2868392.5, 1300153.89)" gradientUnits="userSpaceOnUse"><stop offset="0" stop-color="#6057a6"/><stop offset="0.13" stop-color="#4f58a6"/></linearGradient><linearGradient id="linear-gradient-3" x1="124.98" y1="718.69" x2="124.96" y2="718.89" gradientTransform="matrix(678.25, -1967.06, -4123.34, -1421.73, 2879425.75, 1268155.07)" gradientUnits="userSpaceOnUse"><stop offset="0" stop-color="#7869af"/><stop offset="0.25" stop-color="#6968af"/></linearGradient><linearGradient id="linear-gradient-4" x1="124.92" y1="718.68" x2="124.91" y2="718.8" xlink:href="#linear-gradient-3"/><linearGradient id="linear-gradient-5" x1="125.11" y1="718.71" x2="125.09" y2="718.9" gradientTransform="matrix(564.72, -1637.82, -4123.34, -1421.73, 2893638.53, 1226939.26)" gradientUnits="userSpaceOnUse"><stop offset="0" stop-color="#aa99ca"/><stop offset="0.38" stop-color="#9d97ca"/></linearGradient><linearGradient id="linear-gradient-6" x1="125.08" y1="718.73" x2="125.06" y2="718.92" gradientTransform="matrix(457.25, -1326.13, -4123.34, -1421.73, 2907164.88, 1187882.87)" gradientUnits="userSpaceOnUse"><stop offset="0" stop-color="#d9cde5"/><stop offset="0.5" stop-color="#d4cde6"/></linearGradient><linearGradient id="linear-gradient-7" x1="125.04" y1="718.72" x2="125.02" y2="718.9" gradientTransform="matrix(362.59, -1051.6, -4123.34, -1421.73, 2918979.28, 1153441.25)" gradientUnits="userSpaceOnUse"><stop offset="0" stop-color="#fff"/><stop offset="0.63" stop-color="#fff"/></linearGradient></defs><title>waves</title><g id="wickedbackground"><g id="Group_2" data-name="Group 2"><path id="Path_1" data-name="Path 1" class="cls-1" d="M841.89,595.28H639.63c-104.67,0-125.41,1-218.69,0-95-1-126.83,0-245.59,0H0V0H841.89Z"/><path id="Path_2" data-name="Path 2" class="cls-2" d="M841.89,595.28c-30.84-13.75,25.25,18.86-44.89-5.82s-170-44.63-235.77-65.57-98.38-44.15-158.81-60.07-86,16.32-147.24-2.39-86.07,38.3-150.26,11.74S36.91,519.44,0,505.68V0H841.89Z"/><path id="Path_3" data-name="Path 3" class="cls-3" d="M0,595.28V0L841.89,367.94V593.53a1.66,1.66,0,0,1-3,1.07"/><path id="Path_3-2" data-name="Path 3" class="cls-4" d="M841.89,593.53c-11.36-.48-363.93,1.75-377.5,1.75H276.57"/><path id="Path_4" data-name="Path 4" class="cls-5" d="M779,452.51C720.65,432,621.5,358.37,570,337.1s-60.24,2.63-99.8-12.2-82.07-61.69-137.59-76.8S183.46,246,137.11,234.25s-38-35.73-82.54-56.88S30.83,168.28,0,156.61V0H841.89V461.92"/><path id="Path_5" data-name="Path 5" class="cls-6" d="M828.57,363.21c-82.54-34.92-154.12-120-238.89-148.88S431,222.24,350.21,202.2s-172.64-77.87-245-108.08S31.49,64.69,0,52.49V0H841.89V367.94"/><path id="Path_6" data-name="Path 6" class="cls-7" d="M752.74,198c-59.09-33.34-90.34-66.74-147.24-78.26S469.31,150,411.34,129,305.81,24.31,257.26,7.39s-83.1,31.88-137.24,20S63.7,10,44.39.61h0L841.89,0V253.92"/></g></g></svg>